# xmcd
#
# Track frame offsets: 
#        150
#        22083
#        49012
#        75785
#        95258
#        122949
#        139590
#        165127
#        189125
#        213533
#        234473
#        265336
#        290085
#        314028
#        343225
#        375542
#
# Disc length: 5307 seconds
#
# Revision: 0
# Processed by: cddbd v1.5.2PL0 Copyright (c) Steve Scherf et al.
# Submitted via: ExactAudioCopy v1.3
#
DISCID=de14b910
DTITLE=Travellin' Brothers - 1001 Nights (Live)
DYEAR=2019
DGENRE=Blues
TTITLE0=Peggy Sue Got Divorced
TTITLE1=Oh My River
TTITLE2=Thunderstorm Blues
TTITLE3=Magnolia Route
TTITLE4=Make Me Down A Pallet On Your Floor
TTITLE5=Working In The Coal Mine
TTITLE6=A Better Day
TTITLE7=Elijah Rock
TTITLE8=Tennessee Whiskey
TTITLE9=The Power Of Your Love
TTITLE10=Soulshine
TTITLE11=Swing And Jive
TTITLE12=Frenchmen Street
TTITLE13=Midnight Train
TTITLE14=Love Joy and Happiness
TTITLE15=This Train Is A Bound Of Glory
EXTD=
EXTT0=
EXTT1=
EXTT2=
EXTT3=
EXTT4=
EXTT5=
EXTT6=
EXTT7=
EXTT8=
EXTT9=
EXTT10=
EXTT11=
EXTT12=
EXTT13=
EXTT14=
EXTT15=
PLAYORDER=
